<svg width="24" height="24" viewBox="0 0 24 24" fill="none" xmlns="http://www.w3.org/2000/svg">
<path d="M19.9597 8.95999C19.2897 8.21999 18.2797 7.78999 16.8797 7.63999V6.87999C16.8797 5.50999 16.2997 4.18999 15.2797 3.26999C14.2497 2.32999 12.9097 1.88999 11.5197 2.01999C9.12975 2.24999 7.11975 4.55999 7.11975 7.05999V7.63999C5.71975 7.78999 4.70975 8.21999 4.03975 8.95999C3.06975 10.04 3.09975 11.48 3.20975 12.48L3.90975 18.05C4.11975 20 4.90975 22 9.20975 22H14.7897C19.0897 22 19.8797 20 20.0897 18.06L20.7897 12.47C20.8997 11.48 20.9197 10.04 19.9597 8.95999ZM11.6597 3.40999C12.6597 3.31999 13.6097 3.62999 14.3497 4.29999C15.0797 4.95999 15.4897 5.89999 15.4897 6.87999V7.57999H8.50975V7.05999C8.50975 5.27999 9.97975 3.56999 11.6597 3.40999ZM8.41975 13.15H8.40975C7.85975 13.15 7.40975 12.7 7.40975 12.15C7.40975 11.6 7.85975 11.15 8.40975 11.15C8.96975 11.15 9.41975 11.6 9.41975 12.15C9.41975 12.7 8.96975 13.15 8.41975 13.15ZM15.4197 13.15H15.4097C14.8597 13.15 14.4097 12.7 14.4097 12.15C14.4097 11.6 14.8597 11.15 15.4097 11.15C15.9697 11.15 16.4197 11.6 16.4197 12.15C16.4197 12.7 15.9697 13.15 15.4197 13.15Z" fill="white"/>
</svg>
